/* XPM */
static char * icon_xpm[] = {
"32 32 6 1",
" 	c None",
".	c #000000",
"+	c #A1A1A1",
"@	c #878787",
"#	c #28681D",
"$	c #666666",
"                                ",
"        ...........             ",
"       .+++++++++..             ",
"      .+++++++++.@.             ",
"     ...........@@.             ",
"     .#########.@@.             ",
"     .#########.@@.             ",
"     .#########.@@.             ",
"     .#########.@@.             ",
"     .#########.@@.             ",
"     .#########.@@.             ",
"     .#########.@.              ",
"     .#########.... ..........  ",
"     ........... ...++++++++..  ",
"      .$$$$$$$$$. .++++++++.@.  ",
"     ...........$..........@@.  ",
"     .#########.$.########.@@.  ",
"     .#########.$.########.@@.  ",
"     .#########.$.########.@@.  ",
"     .#########.$.########.@@.  ",
"     .#########.$.########.@@.  ",
"     .#########.$.########.@@.  ",
"     .#########.$.########.@.   ",
"     .#########...########..    ",
"     ........... ..........     ",
"                                ",
"                                ",
"                                ",
"                                ",
"                                ",
"                                ",
"                                "};
